<?xml version="1.0" standalone="no"?>
<!DOCTYPE svg PUBLIC "-//W3C//DTD SVG 20010904//EN"
 "http://www.w3.org/TR/2001/REC-SVG-20010904/DTD/svg10.dtd">
<svg version="1.0" xmlns="http://www.w3.org/2000/svg"
 width="320.000000pt" height="320.000000pt" viewBox="0 0 320.000000 320.000000"
 preserveAspectRatio="xMidYMid meet">

<g transform="translate(0.000000,320.000000) scale(0.100000,-0.100000)"
fill="#000000" stroke="none">
<path d="M1380 2839 c-322 -62 -535 -182 -774 -439 -152 -164 -263 -419 -280
-645 -6 -80 0 -81 22 -5 9 29 10 21 5 -40 -3 -41 -3 -73 0 -70 3 3 15 61 27
130 12 69 25 145 30 170 14 74 113 290 127 277 2 -3 -10 -33 -27 -68 -64 -132
-105 -274 -125 -439 -11 -88 5 -51 31 71 21 100 34 143 34 111 0 -6 7 -9 15
-6 12 5 15 -2 16 -32 l0 -39 14 35 c32 84 113 223 190 325 84 111 145 178 145
158 0 -6 -7 -16 -15 -23 -8 -7 -15 -17 -15 -22 0 -6 24 10 53 34 89 76 219
169 279 199 406 205 884 137 1212 -171 143 -134 251 -314 302 -505 23 -87 27
-120 28 -255 1 -167 -9 -230 -60 -372 -128 -355 -433 -620 -809 -700 -27 -6
-117 -14 -200 -18 l-150 -8 165 3 c182 4 265 19 400 75 144 59 250 131 384
259 38 37 63 55 56 42 -19 -37 -138 -151 -214 -205 -173 -123 -348 -180 -606
-195 l-135 -8 110 -3 110 -3 -90 -9 c-103 -11 -231 1 -348 33 -93 26 -262 107
-342 164 -34 24 -66 41 -70 37 -3 -4 -5 -2 -4 3 4 12 -135 147 -143 140 -3 -4
-20 11 -37 32 -31 38 -41 60 -19 47 7 -5 8 -3 4 5 -5 7 -11 10 -14 7 -3 -3
-12 0 -21 7 -8 6 -5 -3 8 -20 12 -18 19 -38 16 -43 -4 -6 -3 -9 2 -8 4 2 51
-40 103 -92 132 -132 299 -240 447 -289 34 -12 114 -31 178 -44 132 -26 147
-41 21 -21 -236 38 -455 147 -625 310 -73 71 -101 92 -101 75 0 -9 109 -114
170 -162 207 -164 439 -254 685 -265 61 -2 132 -7 158 -9 29 -2 45 0 42 5 -4
6 8 10 25 10 18 0 59 7 92 16 33 8 68 12 76 9 9 -3 13 -3 9 1 -4 4 23 18 60
31 90 30 212 91 296 148 38 25 74 42 79 38 6 -3 8 -1 5 5 -7 11 86 95 95 86 7
-6 104 103 156 176 81 113 157 287 192 435 24 103 44 339 36 422 -12 122 -82
347 -148 478 -101 199 -283 381 -480 481 -224 113 -378 154 -603 160 -121 3
-170 0 -255 -17z m-320 -122 c-132 -66 -234 -137 -341 -235 -71 -65 -77 -70
-42 -27 47 56 53 61 147 133 70 54 184 121 271 159 91 40 72 24 -35 -30z
m-100 -92 c-19 -14 -37 -25 -41 -25 -12 0 -137 -107 -187 -161 -28 -30 -53
-51 -56 -48 -14 14 141 152 259 231 51 34 70 36 25 3z m-160 -1872 c36 -37 56
-60 45 -52 -38 28 -125 119 -113 119 2 0 33 -30 68 -67z"/>
<path d="M1067 2173 c-4 -3 -7 -60 -7 -125 l0 -118 30 0 c30 0 30 1 30 53 l0
52 37 -52 c34 -49 40 -53 76 -53 l39 0 -46 54 c-25 29 -46 58 -46 65 0 7 18
36 40 65 22 29 40 56 40 59 0 4 -13 7 -29 7 -25 0 -37 -10 -70 -57 l-41 -56 0
56 c0 53 -2 57 -23 57 -13 0 -27 -3 -30 -7z"/>
<path d="M1367 2174 c-4 -4 -7 -61 -7 -126 l0 -118 76 0 c72 0 75 1 72 23 -2
18 -10 23 -45 25 -38 3 -43 6 -43 28 0 21 4 24 40 24 36 0 40 3 40 25 0 23 -4
25 -40 25 -35 0 -40 3 -40 24 0 21 4 23 43 23 38 -1 42 2 42 24 0 23 -4 24
-65 27 -36 2 -69 0 -73 -4z"/>
<path d="M1604 2165 c-10 -26 2 -39 35 -39 l33 -1 0 -97 -1 -98 29 0 29 0 3
98 3 97 33 0 c28 0 32 3 32 27 l0 28 -95 0 c-75 0 -97 -3 -101 -15z"/>
<path d="M1961 2163 c-97 -48 -92 -181 7 -225 38 -17 51 -19 83 -9 111 33 123
182 19 236 -37 19 -67 19 -109 -2z m109 -63 c42 -42 8 -120 -52 -120 -58 0
-91 78 -51 122 22 24 77 24 103 -2z"/>
<path d="M1150 1611 c0 -87 3 -120 13 -124 24 -9 108 3 134 20 27 18 53 68 53
104 0 35 -31 89 -61 104 -15 8 -53 15 -84 15 l-55 0 0 -119z m120 49 c26 -26
26 -81 1 -104 -18 -17 -69 -19 -63 -3 1 4 2 34 2 67 0 53 2 60 20 60 11 0 29
-9 40 -20z"/>
<path d="M1460 1604 c0 -124 0 -125 23 -122 21 3 22 7 25 126 l3 122 -26 0
-25 0 0 -126z"/>
<path d="M1630 1610 c0 -66 1 -120 3 -121 1 0 32 -3 70 -6 l67 -5 0 29 c0 27
-3 30 -32 28 -18 -1 -39 0 -45 2 -20 8 -16 43 5 44 9 1 28 2 42 2 18 2 26 9
28 24 3 19 -2 22 -40 25 -36 2 -44 7 -46 26 -3 20 1 22 42 22 42 0 46 2 46 25
0 24 -2 25 -70 25 l-70 0 0 -120z"/>
<path d="M1870 1705 c0 -22 4 -25 35 -25 l34 0 3 -97 c3 -97 3 -98 28 -98 25
0 25 1 28 98 l3 97 34 0 c31 0 35 3 35 25 l0 25 -100 0 -100 0 0 -25z"/>
<path d="M361 1394 c0 -11 3 -14 6 -6 3 7 2 16 -1 19 -3 4 -6 -2 -5 -13z"/>
<path d="M1053 1215 c0 -38 2 -55 4 -37 4 28 8 32 34 32 26 0 29 -3 29 -31 0
-17 4 -28 10 -24 6 3 10 33 10 66 0 33 -4 59 -10 59 -5 0 -10 -14 -10 -31 0
-27 -3 -30 -27 -27 -22 2 -29 10 -34 33 -4 19 -6 4 -6 -40z"/>
<path d="M1200 1215 l0 -65 41 0 c26 0 38 4 33 11 -3 6 -17 9 -30 6 -20 -3
-24 0 -24 19 0 18 6 24 33 27 l32 4 -32 1 c-28 2 -33 6 -33 26 0 20 6 25 33
29 28 3 26 4 -10 5 l-43 2 0 -65z"/>
<path d="M1352 1218 l-2 -68 31 0 c17 0 28 4 24 10 -3 6 -15 10 -25 10 -16 0
-20 9 -23 58 l-3 57 -2 -67z"/>
<path d="M1460 1221 c0 -33 5 -63 10 -66 6 -3 10 4 10 18 0 19 7 26 29 30 33
7 49 40 31 62 -7 8 -28 15 -46 15 l-34 0 0 -59z m68 22 c3 -19 -1 -23 -22 -23
-21 0 -26 5 -26 26 0 21 4 25 23 22 14 -2 23 -11 25 -25z"/>
<path d="M1617 1265 c-3 -11 -8 -33 -12 -50 -3 -16 -8 -38 -11 -47 -3 -10 -1
-18 5 -18 6 0 11 10 12 23 0 12 4 31 9 42 7 17 11 14 26 -24 l18 -44 22 49 22
49 7 -47 c4 -27 11 -48 16 -48 9 0 7 16 -13 95 -11 43 -11 43 -39 -30 l-12
-30 -22 50 c-18 39 -23 46 -28 30z"/>
<path d="M1810 1228 c-12 -29 -24 -59 -27 -65 -3 -7 -1 -13 5 -13 5 0 12 9 15
20 7 29 63 28 72 -1 4 -11 9 -18 12 -15 6 6 -39 126 -48 126 -4 0 -16 -24 -29
-52z m50 -20 c0 -4 -9 -8 -20 -8 -21 0 -24 8 -13 36 6 16 7 16 20 -2 7 -10 13
-21 13 -26z"/>
<path d="M1953 1273 c14 -4 17 -16 17 -65 0 -34 3 -58 7 -55 4 4 6 32 4 61 -2
50 0 55 21 59 13 2 3 4 -22 4 -25 1 -37 -1 -27 -4z"/>
<path d="M2070 1215 l0 -65 40 0 c22 0 40 5 40 10 0 6 -12 9 -27 8 -22 -2 -29
2 -31 19 -3 18 3 22 30 26 l33 4 -32 1 c-28 2 -33 6 -33 26 0 20 6 25 33 29
28 3 26 4 -10 5 l-43 2 0 -65z"/>
<path d="M430 1145 c0 -5 5 -17 10 -25 5 -8 10 -10 10 -5 0 6 -5 17 -10 25 -5
8 -10 11 -10 5z"/>
<path d="M450 1097 c0 -16 55 -115 108 -197 89 -134 246 -287 377 -366 47 -28
17 -2 -59 51 -151 106 -274 245 -371 421 -30 55 -55 95 -55 91z"/>
<path d="M560 1041 c0 -6 4 -13 10 -16 6 -3 7 1 4 9 -7 18 -14 21 -14 7z"/>
<path d="M589 995 c5 -11 17 -29 26 -40 l16 -20 -10 20 c-5 11 -17 29 -26 40
l-16 20 10 -20z"/>
<path d="M970 515 c0 -7 121 -67 126 -63 2 2 -26 18 -61 36 -36 17 -65 30 -65
27z"/>
<path d="M1398 503 c7 -3 16 -2 19 1 4 3 -2 6 -13 5 -11 0 -14 -3 -6 -6z"/>
<path d="M1140 430 c8 -5 20 -10 25 -10 6 0 3 5 -5 10 -8 5 -19 10 -25 10 -5
0 -3 -5 5 -10z"/>
<path d="M1318 373 c6 -2 18 -2 25 0 6 3 1 5 -13 5 -14 0 -19 -2 -12 -5z"/>
<path d="M1378 363 c7 -3 16 -2 19 1 4 3 -2 6 -13 5 -11 0 -14 -3 -6 -6z"/>
<path d="M1458 353 c6 -2 18 -2 25 0 6 3 1 5 -13 5 -14 0 -19 -2 -12 -5z"/>
<path d="M1563 343 c20 -2 54 -2 75 0 20 2 3 4 -38 4 -41 0 -58 -2 -37 -4z"/>
</g>
</svg>
